<?xml version="1.0" encoding="UTF-8"?>
<svg id="Layer_2" data-name="Layer 2" xmlns="http://www.w3.org/2000/svg" viewBox="0 0 794.23 763.94">
  <defs>
    <style>
      .cls-1 {
        fill: #dc1565;
      }

      .cls-1, .cls-2, .cls-3, .cls-4 {
        stroke-width: 0px;
      }

      .cls-2 {
        fill: #f49f0a;
      }

      .cls-3 {
        fill: #fefefe;
      }

      .cls-4, .cls-5 {
        fill: #06aca9;
      }

      .cls-5 {
        stroke: #06aca9;
        stroke-miterlimit: 10;
        stroke-width: 13px;
      }
    </style>
  </defs>
  <g id="Layer_1-2" data-name="Layer 1">
    <g>
      <path class="cls-5" d="M511.68,235.53c.31,15.44-.06,30.98-.04,46.46-5.41,44.15-18.64,87.27-43.35,124.39-9.77,15.95-10.68,14.43,2.26,27.68,4.61,7.71-6.2,14.04-10.38,19.39-11.27,11.07-22.21,22.43-32.49,34.45-9.92,11.56-13.6,18.18-27.45,6.11-7.66-7.4-13.7-3.63-21.97-.11-157.53,69.27-332.79-12.33-367.15-184.25-2.19-10.48-4.08-21.06-4.61-31.81.01-16.07.21-32.16.23-48.19C17.55,139.86,68.91,68.13,151.09,29.81,208.55,1.88,277.17.19,337.87,18.66c96.88,27.79,165.02,117.38,173.78,216.54l.03.33ZM477.31,263.56c3.97-98.03-64.76-192.86-160.71-215.91C132.58,2.04-5.62,173.1,55.96,339.97c15.94,41.23,43.74,79.73,80.79,105.42,19.53,11.8,40.71,22.16,62.29,28.94,67.19,20.38,144.12,6.3,199.69-36.76,17.48-12.94,29.69-31,40.46-49.61,23.11-37.34,39.09-82.52,38.12-124.05v-.34Z"/>
      <path class="cls-4" d="M794.21,694.32c.14,8.22-.51,16.74-1.78,24.87-4.22,12.86-11.46,26.21-22.76,33.95-22.06,15.01-54.39,14.35-76.2-1.83-56.41-44.04-109.5-92.39-164.32-138.43-18.47-16.03-36.9-32.18-54.43-49.24-10.53-10.72-21.02-21.64-30.7-33.1-3.96-5.97-11.91-12.78-7.38-20.27,10.55-18.54,26.97-32.83,42.04-47.59,3.44-2.97,7.36-6.26,11.83-7.27,2.35-.45,4.75.14,6.96,1,5.36,2.2,10.61,4.33,15.83,6.81,40.73,19.33,77.13,46.29,114.48,71.34,3.03,2.08,6.4,3.59,9.34,5.69,2.45,1.81,4.49,4.05,6.95,5.92,23.07,17.41,46.07,34.96,69.59,51.69,21.67,18.48,46.53,35.27,64.28,57.63,8.7,11.14,12.65,24.78,16.23,38.53l.06.31Z"/>
      <g>
        <path class="cls-1" d="M152.03,225.96c-2.41,0-3.1-.7-3.06-3.08.14-7.82.11-15.64.01-23.46-.02-1.92.55-2.9,2.37-3.69,33.74-14.74,67.44-29.6,101.2-44.31,2.55-1.11,3.37-2.43,3.34-5.17-.15-14.16-.02-28.33-.11-42.5-.01-2.18.39-2.97,2.81-2.95,20.95.12,41.9.11,62.86.1,1.91,0,2.56.21,1.35,2.2-4.65,7.64-9.21,15.34-13.7,23.08-.88,1.52-1.91,1.91-3.55,1.9-11.56-.06-23.13.05-34.69-.09-2.48-.03-3.06.75-2.99,3.07.15,5.64.14,11.3,0,16.94-.05,1.89.67,2.72,2.33,3.44,34.04,14.72,68.04,29.52,102.09,44.22,1.94.84,2.52,1.83,2.49,3.86-.11,8.6-.1,17.21-.01,25.81.02,1.84-.55,2.35-2.36,2.33-36.77-.31-73.55-.57-110.32-.84,0-.18-93.72-.84-110.06-.86Z"/>
        <path class="cls-1" d="M187.59,351.87c2.43.04,4.86.12,7.29.12,55.81,0,111.62,0,167.42,0q3.68,0,3.69,3.62c0,5.21.11,10.43-.05,15.64-.07,2.23.44,3.02,2.84,2.95,6.17-.18,12.34,0,18.51-.09,1.78-.03,2.47.48,2.4,2.34-.13,3.21-.14,6.43,0,9.64.09,1.96-.59,2.53-2.53,2.51-9.82-.08-19.65-.04-29.47-.04-73.71,0-147.43,0-221.14,0q-3.71,0-3.71-3.61c0-2.87.08-5.74-.03-8.6-.06-1.71.54-2.27,2.25-2.23,4.43.09,8.87-.06,13.3.07,1.98.06,2.74-.43,2.68-2.58-.15-5.47.07-10.95-.1-16.42-.08-2.47.58-3.29,3.15-3.25,8.51.14,17.03.02,25.55,0,2.65.13,5.3.38,7.95-.06Z"/>
        <path class="cls-1" d="M192.18,339.26c-3.12,0-6.24.01-9.37.02-.36,0-.72,0-1.07,0-3.39-.01-6.79-.18-10.16.02-2.36.14-2.87-.68-2.87-2.93.08-26.4.05-52.8.05-79.2,0-5.12.06-10.25-.03-15.37-.03-1.75.44-2.47,2.3-2.47,16.25.06,32.49.08,48.74.02,2.16,0,2.09,1.2,2.09,2.67-.01,13.81,0,27.62,0,41.43,0,17.46,0,34.91,0,52.37,0,3.84.38,3.4-3.55,3.42-5.56.03-11.12.03-16.68.04-3.14,0-6.28,0-9.43,0Z"/>
        <path class="cls-1" d="M303.32,239.31c2.61-.04,5.22-.07,7.82-.11.17,0,.34,0,.51,0,.66.04,1.32.07,1.98.11.77-.03,1.53-.05,2.3-.08.97.02,1.94.04,2.91.06.26,0,.51,0,.77,0,10.78.03,21.56.11,32.34.04,2.29-.01,3.11.5,3.1,3-.09,31.37-.06,62.74-.06,94.11,0,1.46.34,2.87-2.09,2.85-16.86-.11-33.73-.09-50.59-.11-.09-.17-.19-.34-.28-.51,0-26.77-.01-53.54-.02-80.3.25-2.95.3-5.9,0-8.85-.05-.31-.11-.62-.16-.93.2-.73.46-1.46.17-2.23-.03-.34-.06-.67-.09-1.01.17-1.06.4-2.11.08-3.18.07-.86.14-1.73.2-2.59.37-.09.74-.17,1.11-.26Z"/>
        <path class="cls-1" d="M287.38,265.23c-.04.95-.11,1.91-.11,2.86,0,22.77-.04,45.54.04,68.31,0,2.33-.65,2.9-2.92,2.89-15.74-.1-31.48-.09-47.21,0-2.08.01-2.83-.44-2.82-2.69.07-31.55.07-63.1,0-94.65,0-2.13.72-2.61,2.69-2.61,16.35.05,32.69,0,49.04-.01.36.07.72.14,1.07.22.06,6.42.12,12.84.18,19.26.02.57.03,1.14.05,1.72-.18,1.16-.24,2.32.05,3.48-.02.41-.04.82-.06,1.23Z"/>
        <path class="cls-1" d="M287.16,239.54c-.36-.07-.72-.14-1.07-.22.43-.26.79-.25,1.07.22Z"/>
        <path class="cls-1" d="M302.03,338.66c.09.17.19.34.28.51-.28-.07-.39-.23-.28-.51Z"/>
        <path class="cls-1" d="M311.66,239.19c-.17,0-.34,0-.51,0,.17,0,.34,0,.51,0Z"/>
        <path class="cls-1" d="M321.05,419.5c.18.18.36.36.53.53-.18-.18-.36-.36-.53-.53Z"/>
        <path class="cls-1" d="M184.36,351.19c.13.06.26.11.39.17-.07,0-.15.03-.2,0-.07-.04-.12-.11-.18-.17h0Z"/>
      </g>
      <path class="cls-2" d="M384.6,552.77c-.26-1.09-.98-1.85-1.79-2.55-3.02-2.66-4.96-6.16-7.28-9.36-3.22-4.45-5.86-9.22-8.24-14.18-2.54-5.3-4.67-10.7-6.29-16.35-1.68-5.83-2.93-11.7-3.68-17.73-.54-4.37-.86-8.75-.92-13.1-.05-4.17.36-8.38.83-12.56.55-4.83,1.43-9.59,2.61-14.26.84-3.35,1.93-6.68,3.12-9.97,1.89-5.2,4.43-10.09,6.77-15.07,1.37-2.94,3.36-5.51,5.18-8.16,2.98-4.33,6.2-8.49,9.76-12.4,4.82-5.29,9.93-10.2,15.74-14.4,6.51-4.7,13.42-8.61,20.73-11.96,7.08-3.25,14.49-5.34,22-7.05,3.54-.81,7.26-1.2,10.95-1.49,4.25-.34,8.5-.54,12.75-.65,2.81-.08,5.63.36,8.45.6,5.1.44,10.15,1.31,15.09,2.59,3.41.89,6.8,1.89,10.15,3.05,5.35,1.86,10.47,4.22,15.49,6.75,3.62,1.83,6.98,4.24,10.32,6.58,5.18,3.63,10.08,7.62,14.47,12.2,4.02,4.19,7.88,8.47,11.32,13.2,3.87,5.31,7.08,10.97,10.05,16.75,1.52,2.95,2.74,6.14,3.86,9.33,1.36,3.86,2.5,7.77,3.58,11.7.56,2.02.88,4.12,1.2,6.2.55,3.57,1.03,7.14,1.5,10.72.21,1.57.18,3.16.24,4.73.12,3.13-.16,6.27-.18,9.41-.02,2.97-.4,5.9-.78,8.83-.79,6.12-2.08,12.15-4,18.02-2.35,7.18-5.13,14.18-9.14,20.63-.4.64-.53,1.35-.74,2.04-.61.24-.86.81-1.15,1.32-2.47,4.45-5.37,8.65-8.66,12.49-6.26,7.3-13.2,13.93-21.16,19.42-5.08,3.5-10.3,6.7-15.91,9.31-2.17,1.01-4.39,1.85-6.57,2.8-4.06,1.75-8.25,3.16-12.52,4.22-3.83.96-7.74,1.69-11.65,2.23-4.24.58-8.53,1.11-12.79,1.12-4.48,0-8.97.06-13.46-.46-4.86-.57-9.68-1.3-14.44-2.38-4.63-1.04-9.15-2.51-13.57-4.3-5.03-2.04-10.02-4.1-14.65-6.98-2.85-1.77-5.72-3.49-8.51-5.36-4.7-3.13-8.92-6.77-13.01-10.63-1.71-1.61-2.99-3.68-5.09-4.88ZM436.23,453.6c-.3,1.28.3,2.63.79,4,2.62,7.31,10.04,9.52,16.68,6.37,1.57-.75,1.73-.18,1.84.87.35,3.15.59,6.31.87,9.47.29,3.29.53,6.59.86,9.88.61,5.97,1.32,11.94,1.92,17.92.55,5.51.82,11.04,1.8,16.51.64,3.59,3.06,5.69,6.12,6.94,4.24,1.73,8.43,1.44,12.46-1.1,3.68-2.31,5.59-5.89,5.09-10.14-.36-3.08-.58-6.19-.86-9.28-.42-4.73-.81-9.47-1.27-14.2-.48-5-1-9.99-1.54-14.98-.33-3.09-.63-6.18-.88-9.28-.38-4.93-.93-9.85-1.54-14.77-.47-3.85-.64-7.71-1.79-11.5-2.51-8.24-10.21-9.19-16.49-6.02-5.39,2.72-10.75,5.49-16.26,7.91-4.48,1.97-7.75,6.32-7.8,11.4ZM553.12,519.32c-.11-.73-.8-.89-1.34-.9-2.9-.08-5.62-1.24-8.51-1.39-1.94-.1-3.17-1.13-3.69-2.98-.71-2.51-2.22-4.66-3.13-7.07-.19-.5-.35-1.17-.98-1.03-.43.1-.8.57-.94,1.17-.63,2.89-1.51,5.73-1.94,8.64-.21,1.4-.78,1.81-1.95,2.24-3.03,1.12-5.98,2.44-8.97,3.64-.5.2-.79.43-.74.99.06.59.54.46.9.55,2.92.72,5.87,1.22,8.85,1.62,1.19.16,2.48.25,2.89,1.66.82,2.8,2.67,5.16,3.33,8.01.17.74.61,1.18,1.38,1.18.8,0,.92-.69,1.05-1.25.52-2.36,1.02-4.73,1.47-7.11.36-1.88,1.13-3.24,3.16-3.87,2.76-.86,5.44-2.01,8.16-3.01.52-.19,1.01-.37.99-1.1ZM394.24,466.4c.69-.2.78-.8.9-1.27.62-2.41,1.43-4.82,1.66-7.28.22-2.32,1.45-3.25,3.39-3.76,2.63-.69,4.93-2.26,7.61-2.83.48-.1.92-.38.9-.92-.02-.53-.45-.78-.95-.87-2.53-.42-5.08-.72-7.57-1.29-1.58-.36-3.24-.31-4.27-2.4-1.29-2.59-1.93-5.48-3.66-7.86-.27-.38-.4-.86-.98-.86-.72,0-.59.63-.68,1.03-.67,2.81-1.36,5.63-1.9,8.47-.22,1.15-.54,1.87-1.77,2.29-2.8.96-5.56,2.08-8.27,3.27-.55.24-1.65.41-1.47,1.36.14.75,1.09.7,1.69.81,2.64.5,5.31.93,7.97,1.31,1.34.2,2.21.69,2.83,2.05,1.06,2.34,2.17,4.65,3.01,7.09.27.78.86,1.29,1.56,1.65ZM549.57,487.68c-.37.06-.65.27-.64.63.03,1.35-.73,2.5-.85,3.85-.22,2.28-.72,4.54-3.74,4.79-1.75.14-3.04,1.57-4.76,1.87-.31.05-.69.24-.55.66.07.21.35.43.57.48,1.22.27,2.44.5,3.67.71,2.17.37,4.53.12,5.53,2.95.52,1.47,1.26,2.89,1.82,4.37.14.37.07,1.02.73,1.02.65,0,.9-.47,1.02-1.03.27-1.28.59-2.56.8-3.85.34-2.11.81-3.98,3.46-4.37,1.05-.15,2.25-.41,3.09-1.25.73-.73,2.68-.27,2.41-1.48-.19-.85-2.05-.66-3.17-.86-2.93-.55-6.21-.29-7.02-4.41-.21-1.04-1.07-2.09-1.46-3.22-.16-.46-.31-.89-.91-.86ZM378.75,479.45c.68,0,.8-.54.89-.94.35-1.47.69-2.95.92-4.44.21-1.38.75-2.49,2.2-2.68,1.83-.25,3.21-1.54,4.96-1.91.37-.08.82-.23.72-.77-.07-.39-.42-.46-.77-.46-1.39.01-2.63-.68-4.05-.76-1.96-.1-3.69-.85-4.27-3.14-.32-1.27-.94-2.47-1.48-3.67-.14-.32-.4-.8-.85-.62-.23.09-.39.51-.46.81-.43,1.7-.86,3.41-1.21,5.13-.17.84-.48,1.4-1.33,1.78-1.81.81-3.58,1.68-5.51,2.19-.34.09-.87.12-.92.61-.07.64.53.68.94.82.36.13.76.23,1.14.23,4.28.03,7.35,1.6,8.1,6.22.06.38.22.77.42,1.11.12.21.39.34.56.49Z"/>
      <path class="cls-1" d="M384.6,552.77c2.1,1.2,3.38,3.27,5.09,4.88,4.09,3.86,8.31,7.5,13.01,10.63,2.8,1.86,5.67,3.58,8.51,5.36,4.62,2.88,9.62,4.94,14.65,6.98,4.42,1.79,8.94,3.26,13.57,4.3,4.76,1.07,9.58,1.81,14.44,2.38,4.49.53,8.98.47,13.46.46,4.27,0,8.55-.54,12.79-1.12,3.91-.54,7.82-1.27,11.65-2.23,4.27-1.07,8.46-2.47,12.52-4.22,2.19-.94,4.4-1.79,6.57-2.8,5.61-2.61,10.83-5.81,15.91-9.31,7.96-5.49,14.89-12.12,21.16-19.42,3.29-3.84,6.19-8.04,8.66-12.49.29-.52.54-1.08,1.15-1.32,3.79,6.42,7.86,12.67,11.71,19.06,3.09,5.12,6.19,10.26,9.46,15.26,3.61,5.52,6.97,11.19,10.53,16.74,2.77,4.32,5.35,8.79,8.07,13.15,3.62,5.81,7.17,11.66,10.84,17.45,2.47,3.89,4.93,7.82,7.26,11.82,1.91,3.29,4.05,6.45,5.86,9.85-1.82.62-3.53-.19-5.21-.4-6.23-.78-12.41-1.91-18.63-2.77-5.61-.78-11.22-1.65-16.84-2.38-5.92-.77-11.85-1.59-17.76-2.42-4.98-.69-10.01-1.24-14.95-2.24-1.2-.24-2.47-.06-3.64-.59-.85-.39-1.05.39-1.2.91-.97,3.2-2.1,6.33-3.25,9.47-1.63,4.45-3.11,8.94-4.61,13.43-1.08,3.23-2.12,6.48-3.32,9.68-1.3,3.46-2.34,7.02-3.51,10.53-1.84,5.51-3.67,11.04-5.57,16.53-1.17,3.38-2.49,6.7-3.69,10.07-.56,1.58-1,3.2-1.64,5.28-12.21-19.71-24.21-39.08-36.34-58.65-8.27,22.37-16.43,44.46-24.78,67.06-1.32-2.38-2.27-4.19-3.3-5.95-3.64-6.18-7.41-12.29-10.94-18.54-3.47-6.14-7.2-12.13-10.63-18.3-2.81-5.06-5.83-10.02-8.83-14.98-2.14-3.54-4.06-7.2-6.35-10.65-.27-.4-.28-.78-1.08-.52-5.45,1.78-10.84,3.75-16.22,5.75-2.29.85-4.62,1.57-6.93,2.38-5.21,1.84-10.41,3.73-15.63,5.56-6.03,2.11-12.13,4.04-18.1,6.31-5.57,2.12-11.23,3.97-17.13,6.14,2.12-5.58,4.31-10.85,6.12-16.24,1.43-4.26,3.04-8.46,4.56-12.68,1.48-4.12,3.1-8.21,4.6-12.33,1.61-4.42,3.24-8.84,4.86-13.26,1.54-4.18,3.12-8.35,4.65-12.53,1.62-4.46,3.28-8.92,4.92-13.37,1.24-3.35,2.39-6.75,3.82-10.04,1.76-4.05,2.89-8.37,4.54-12.47,1.76-4.38,2.92-8.99,5.13-13.19Z"/>
      <path class="cls-3" d="M436.23,453.6c.05-5.08,3.32-9.43,7.8-11.4,5.52-2.42,10.88-5.2,16.26-7.91,6.28-3.17,13.98-2.22,16.49,6.02,1.15,3.79,1.32,7.65,1.79,11.5.6,4.91,1.15,9.83,1.54,14.77.24,3.1.55,6.19.88,9.28.53,4.99,1.06,9.98,1.54,14.98.45,4.73.84,9.47,1.27,14.2.28,3.09.5,6.2.86,9.28.5,4.24-1.41,7.83-5.09,10.14-4.03,2.53-8.22,2.83-12.46,1.1-3.06-1.25-5.48-3.35-6.12-6.94-.97-5.47-1.24-11-1.8-16.51-.6-5.98-1.31-11.94-1.92-17.92-.34-3.29-.57-6.59-.86-9.88-.28-3.16-.51-6.32-.87-9.47-.12-1.04-.27-1.61-1.84-.87-6.64,3.15-14.07.95-16.68-6.37-.49-1.38-1.09-2.72-.79-4Z"/>
      <path class="cls-3" d="M553.12,519.32c.02.74-.47.91-.99,1.1-2.72,1.01-5.39,2.16-8.16,3.01-2.03.63-2.8,1.99-3.16,3.87-.45,2.38-.95,4.74-1.47,7.11-.12.56-.24,1.25-1.05,1.25-.77,0-1.21-.44-1.38-1.18-.67-2.85-2.51-5.21-3.33-8.01-.41-1.41-1.71-1.5-2.89-1.66-2.97-.41-5.93-.9-8.85-1.62-.36-.09-.84.03-.9-.55-.06-.56.23-.79.74-.99,2.99-1.2,5.94-2.52,8.97-3.64,1.17-.43,1.74-.84,1.95-2.24.43-2.91,1.31-5.76,1.94-8.64.13-.61.5-1.07.94-1.17.63-.15.79.53.98,1.03.91,2.42,2.42,4.56,3.13,7.07.52,1.85,1.75,2.88,3.69,2.98,2.89.14,5.6,1.31,8.51,1.39.54.02,1.22.17,1.34.9Z"/>
      <path class="cls-3" d="M394.24,466.4c-.69-.36-1.29-.87-1.56-1.65-.83-2.44-1.95-4.75-3.01-7.09-.62-1.36-1.5-1.85-2.83-2.05-2.66-.39-5.32-.81-7.97-1.31-.6-.11-1.55-.06-1.69-.81-.18-.94.92-1.12,1.47-1.36,2.71-1.19,5.47-2.31,8.27-3.27,1.23-.42,1.55-1.14,1.77-2.29.54-2.84,1.24-5.65,1.9-8.47.09-.39-.04-1.03.68-1.03.57,0,.7.49.98.86,1.73,2.38,2.37,5.27,3.66,7.86,1.04,2.08,2.69,2.03,4.27,2.4,2.49.57,5.04.87,7.57,1.29.5.08.93.34.95.87.02.54-.42.82-.9.92-2.68.56-4.98,2.14-7.61,2.83-1.94.51-3.18,1.44-3.39,3.76-.23,2.46-1.05,4.86-1.66,7.28-.12.47-.21,1.07-.9,1.27Z"/>
      <path class="cls-3" d="M549.57,487.68c.6-.03.75.4.91.86.38,1.13,1.25,2.17,1.46,3.22.82,4.13,4.09,3.87,7.02,4.41,1.12.21,2.98.01,3.17.86.27,1.2-1.68.75-2.41,1.48-.84.84-2.04,1.1-3.09,1.25-2.65.39-3.12,2.26-3.46,4.37-.21,1.29-.53,2.57-.8,3.85-.12.56-.37,1.03-1.02,1.03-.66,0-.59-.65-.73-1.02-.55-1.48-1.3-2.9-1.82-4.37-1-2.83-3.36-2.59-5.53-2.95-1.23-.21-2.45-.44-3.67-.71-.22-.05-.5-.27-.57-.48-.14-.42.24-.6.55-.66,1.72-.3,3.01-1.73,4.76-1.87,3.01-.25,3.52-2.5,3.74-4.79.13-1.35.88-2.5.85-3.85,0-.37.27-.58.64-.63Z"/>
      <path class="cls-3" d="M378.75,479.45c-.17-.14-.44-.28-.56-.49-.19-.34-.35-.72-.42-1.11-.75-4.62-3.82-6.2-8.1-6.22-.38,0-.78-.11-1.14-.23-.41-.14-1.01-.18-.94-.82.05-.49.58-.52.92-.61,1.93-.51,3.7-1.38,5.51-2.19.85-.38,1.16-.94,1.33-1.78.35-1.72.78-3.42,1.21-5.13.08-.3.24-.72.46-.81.45-.17.71.3.85.62.54,1.2,1.16,2.4,1.48,3.67.58,2.29,2.31,3.04,4.27,3.14,1.42.07,2.66.77,4.05.76.35,0,.7.07.77.46.1.54-.35.69-.72.77-1.76.37-3.14,1.66-4.96,1.91-1.45.2-2,1.31-2.2,2.68-.23,1.49-.57,2.97-.92,4.44-.1.41-.22.94-.89.94Z"/>
    </g>
  </g>
</svg>