<?xml version="1.0" encoding="UTF-8"?>
<svg id="Layer_2" data-name="Layer 2" xmlns="http://www.w3.org/2000/svg" viewBox="0 0 507.51 561.28">
  <defs>
    <style>
      .cls-1 {
        fill: #013967;
      }

      .cls-1, .cls-2, .cls-3, .cls-4, .cls-5, .cls-6 {
        stroke-width: 0px;
      }

      .cls-2 {
        fill: #09dbd0;
      }

      .cls-3 {
        fill: #fdbf00;
      }

      .cls-4 {
        fill: #fde4a5;
      }

      .cls-5 {
        fill: #fefbf7;
      }

      .cls-6 {
        fill: #fe326e;
      }
    </style>
  </defs>
  <g id="Layer_1-2" data-name="Layer 1">
    <path class="cls-1" d="M219.66,511.97c-50.32,0-100.64-.06-150.96.03-22,.04-44.18-14.63-48.26-39.72-.34-2.12-.39-4.31-.39-6.46-.02-54.32-.05-108.64.06-162.96,0-3.22-.91-4.74-3.8-6.24C5.48,290.98.13,281.75.04,269.56c-.09-11.5.05-22.99-.04-34.49-.11-13.31,4.39-23.79,14.81-33.04,22.37-19.84,46.17-38.01,68.28-58.09,13.63-12.38,28.55-19.18,47-16.85,4.72.59,5.99-1.39,6.92-5.6,6.84-31.04,13.89-62.03,21-93.01C161.55,13.08,177.28.12,193.09.09c69.48-.14,138.96-.1,208.44-.02,11.34.01,19.35,9.89,16.9,20.85-7.53,33.76-15.21,67.48-23,101.18-.87,3.78-.67,5.05,3.76,5.01,23.82-.22,47.65-.13,71.48-.1,21.14.03,36.43,15.11,36.66,36.29.15,13.66-.22,27.33.15,40.99.38,13.6-4.56,24.63-14.75,33.35-2.38,2.04-3.31,4.04-3.3,7.18.08,52.82-.42,105.64.21,158.45.25,21.42-7.58,37.73-23.89,51.06-15.59,12.75-30.47,26.35-45.83,39.39-15.19,12.9-32.83,18.48-52.81,18.35-49.15-.32-98.31-.1-147.46-.1ZM214.48,301.04c-57.31,0-114.62.07-171.92-.13-4.78-.02-5.55,1.45-5.54,5.78.14,52.48.12,104.95.05,157.43,0,4.77,1.05,9.21,2.95,13.49,3.18,7.15,9.26,11.76,15.8,14.93,3.44,1.67,8.36,1.41,12.72,1.4,96.79-.09,193.58-.08,290.37-.07,18.68,0,32.86-14.01,32.87-32.65.03-51.64-.05-103.29.15-154.93.02-4.59-1.3-5.35-5.53-5.34-57.31.15-114.62.1-171.93.09ZM252.19,183.97c35.31,0,70.61-.05,105.92.07,3.61.01,5.44-.37,6.29-4.67,2.68-13.47,6.16-26.78,9.19-40.18,8.85-39.09,17.58-78.21,26.55-117.27.8-3.47.24-4.19-3.19-4.19-67.45.06-134.9,0-202.35.06-10.62,0-17.16,5.23-19.61,15.72-6.13,26.22-12.04,52.48-18.01,78.73-5.05,22.23-9.9,44.51-15.22,66.67-1.06,4.42-.34,5.17,4,5.15,35.47-.15,70.95-.09,106.42-.09ZM206.95,236.67v-.02c-18.33,0-36.66,0-54.99,0-43.32,0-86.65.05-129.97-.11-4.2-.02-5.36,1.12-5.2,5.27.36,9.32.23,18.66.26,27.99.02,5.05,2.15,8.68,6.55,11.32,4.24,2.55,8.74,2.86,13.45,2.86,106.31-.02,212.62,0,318.93,0,9,0,18,.1,26.99-.09,9.57-.2,14.64-5.53,14.58-14.92-.05-8.83-.43-17.68,0-26.49.24-5.06-1.53-5.91-6.15-5.9-61.49.15-122.97.1-184.46.1ZM20.46,219.09c25.99,0,50.95,0,75.9,0,99.96,0,199.92-.04,299.88.03,7.1,0,13.62-1.35,19.07-6,23.06-19.65,46.02-39.41,69.1-59.04,2.01-1.71,1.54-2.82.14-4.43-3.7-4.25-8.46-5.5-13.88-5.48-22.32.07-44.65-.01-66.97.05-4.3.01-9.81-1.8-12.56.74-2.65,2.45-2.56,7.91-3.56,12.08q-2.4,10,8.09,10c.17,0,.33,0,.5,0,3.17-.21,6.12.19,7.49,3.58,1.4,3.48.57,6.43-2.27,8.97-4.73,4.21-9.36,8.52-14,12.83-6.53,6.06-14.08,8.87-23.12,8.8-30.82-.23-61.64-.12-92.46-.12-53.81,0-107.62-.01-161.44.08-5.41,0-10.32-.3-12.73-6.18-2.51-6.15,1.91-9.23,5.63-12.5,3.1-2.72,6.95-4.76,9.5-7.89,3.05-3.74,6.65-5.81,11.17-6.49,1.96-.3,2.87-.98,3.28-2.96,1.27-6.16,2.74-12.29,4.15-18.42.26-1.12.95-2.42-1.04-2.48-9.82-.32-19.62-.93-27.95,6.08-17.58,14.8-35.37,29.36-52.94,44.16-9.48,7.99-19.43,15.44-28.95,24.59ZM404.95,484.06c1.08-.88,1.72-1.37,2.33-1.9,16.21-14.08,32.14-28.51,48.73-42.13,11.44-9.39,16.8-20.71,16.72-35.46-.26-48.48-.1-96.96-.17-145.44,0-1.35.76-2.91-.68-4.42-9.42,7.72-18.78,15.4-28.14,23.07-9.08,7.45-18.47,14.42-30.15,17.23-3.45.83-4.55,2.19-4.54,5.89.16,53.14.13,106.29.12,159.43,0,6.86.85,13.89-3.75,19.94-.56.74-.3,2.11-.48,3.78ZM490.26,171.62c-1.67,1.41-2.65,2.24-3.63,3.08-20.03,17.03-39.5,34.79-60.33,50.77-9.17,7.04-12.73,14.06-11.55,25.13.92,8.61.18,17.39.18,26.2.94-.16,1.32-.12,1.55-.28,23.83-16.51,45.57-35.61,67.46-54.52,3.73-3.22,6.44-7.77,6.37-13.4-.16-11.97-.05-23.95-.05-36.99Z"/>
    <path class="cls-4" d="M214.48,301.05c57.31,0,114.62.05,171.93-.09,4.23-.01,5.54.74,5.53,5.34-.2,51.64-.12,103.29-.15,154.93-.01,18.65-14.2,32.66-32.87,32.65-96.79,0-193.58-.02-290.37.07-4.36,0-9.28.26-12.72-1.4-6.53-3.17-12.62-7.77-15.8-14.93-1.9-4.28-2.96-8.72-2.95-13.49.06-52.48.09-104.95-.05-157.43-.01-4.33.76-5.8,5.54-5.78,57.31.19,114.62.13,171.92.13ZM306.5,382.14c-2.06,3.18-4.84,5.84-6.42,9.4-9.93,22.4,6.38,45.71,31.92,45.53,17.26-.12,31.18-12.27,32.83-28.68,1.83-18.3-11.02-32.09-27.07-36.38-7.6-2.03-14.8-.12-21.94,2.35,5.54-10.74,5.97-21.53-.02-32.2-3.31-5.9-7.93-10.21-15.26-10.45-7.21-.23-11.9,3.74-15.25,9.46-5.92,10.12-5.71,20.66-.62,30.92,4.65,9.36,12.17,12.52,21.83,10.03ZM138.17,382.77c9.56,1.44,17.15-1.66,21.58-10.39,5.19-10.24,5.25-20.76-.55-30.85-7.6-13.22-22.44-13.32-30.17-.19-6.85,11.64-6.11,23.32.66,34.8-1.07-.43-2.16-.82-3.2-1.31-14.84-6.96-32.94-2.98-42.79,9.67-8.23,10.57-9.25,22.28-3.63,34.17,6.17,13.05,17.31,19.01,31.45,18.67,13.14-.32,23.98-5.69,30.15-17.84,5.93-11.68,4.66-23.12-2.77-33.91-.54-.78-2.13-1.47-.72-2.81ZM220.68,411.05c17.77.08,34.15-10.61,40.81-26.64,2.28-5.48.64-10.62-4.05-12.71-5.09-2.27-9.81-.17-12.48,5.41-4.83,10.09-13.07,15.66-24.08,15.44-10.6-.21-18.51-5.72-22.71-15.78-.53-1.26-1.11-2.39-2.05-3.35-2.88-2.93-8.04-3.56-11.45-1.41-4.02,2.53-5.19,7.38-3.09,12.85,5.71,14.87,22.51,26.13,39.09,26.2Z"/>
    <path class="cls-5" d="M252.19,183.97c-35.47,0-70.95-.07-106.42.09-4.33.02-5.06-.73-4-5.15,5.32-22.16,10.17-44.44,15.22-66.67,5.97-26.25,11.88-52.52,18.01-78.73,2.45-10.48,8.99-15.71,19.61-15.72,67.45-.06,134.9,0,202.35-.06,3.43,0,3.99.72,3.19,4.19-8.97,39.06-17.7,78.18-26.55,117.27-3.03,13.4-6.52,26.71-9.19,40.18-.85,4.3-2.68,4.68-6.29,4.67-35.31-.11-70.61-.07-105.92-.07ZM256.52,76.11c-2.61-4.62-5.6-8.37-9.59-11.24-11.85-8.53-24.3-10.41-38.11-4.66-7.26,3.02-12.72,7.58-16.35,14.2-10.01,18.25-6.72,35.43,5.62,51.1,14.96,19.01,35.24,31.79,54.91,45.2,2.81,1.92,5.02.53,7.27-.94,12.43-8.09,24.46-16.73,35.81-26.28,12.58-10.59,23.28-22.41,28.56-38.67,5.1-15.71-3.67-36.06-17.85-44.03-14.36-8.07-39.29-4.41-50.27,15.32ZM364.18,57.4c.76-.37,1.45-.75,2.19-1.04,8.91-3.52,13.19-10.31,12.68-19.79-.12-2.16-.78-3.13-2.98-3.77-9.24-2.71-17.33.02-22.57,7.94-8.83-9.14-15.07-10.79-25.21-7.3-3.79,1.31-4.79,3.44-4.18,7.1,1.84,10.97,8.13,17.54,19.13,19.4,2.04.34,2.68.74,2.8,2.92.63,11.48,5.75,17.05,17.31,19.82,2.91.7,4.26-.18,5.45-2.67,4.03-8.46,2.87-14.58-4.62-22.61Z"/>
    <path class="cls-2" d="M206.95,236.67c61.49,0,122.97.05,184.46-.1,4.62-.01,6.39.84,6.15,5.9-.43,8.81-.04,17.66,0,26.49.05,9.39-5.01,14.72-14.58,14.92-8.99.19-18,.09-26.99.09-106.31,0-212.62-.01-318.93,0-4.71,0-9.21-.31-13.45-2.86-4.4-2.65-6.53-6.27-6.55-11.32-.03-9.33.11-18.67-.26-27.99-.16-4.15.99-5.28,5.2-5.27,43.32.16,86.65.11,129.97.11,18.33,0,36.66,0,54.99,0v.02Z"/>
    <path class="cls-2" d="M20.46,219.09c9.51-9.15,19.47-16.61,28.95-24.59,17.58-14.81,35.36-29.37,52.94-44.16,8.33-7.01,18.13-6.39,27.95-6.08,1.99.06,1.3,1.36,1.04,2.48-1.42,6.13-2.88,12.26-4.15,18.42-.41,1.98-1.33,2.67-3.28,2.96-4.52.68-8.12,2.76-11.17,6.49-2.55,3.13-6.41,5.16-9.5,7.89-3.72,3.27-8.14,6.35-5.63,12.5,2.41,5.88,7.33,6.19,12.73,6.18,53.81-.09,107.62-.08,161.44-.08,30.82,0,61.64-.12,92.46.12,9.04.07,16.59-2.74,23.12-8.8,4.64-4.31,9.28-8.62,14-12.83,2.85-2.53,3.67-5.49,2.27-8.97-1.37-3.4-4.31-3.8-7.49-3.58-.17.01-.33,0-.5,0q-10.46,0-8.09-10c1-4.17.91-9.63,3.56-12.08,2.75-2.54,8.27-.73,12.56-.74,22.32-.07,44.65.01,66.97-.05,5.43-.02,10.19,1.23,13.88,5.48,1.4,1.61,1.88,2.72-.14,4.43-23.07,19.63-46.04,39.39-69.1,59.04-5.46,4.65-11.97,6-19.07,6-99.96-.07-199.92-.03-299.88-.03-24.96,0-49.91,0-75.9,0Z"/>
    <path class="cls-3" d="M404.95,484.06c.18-1.67-.08-3.04.48-3.78,4.59-6.06,3.75-13.08,3.75-19.94.01-53.14.04-106.29-.12-159.43-.01-3.7,1.09-5.06,4.54-5.89,11.68-2.8,21.07-9.78,30.15-17.23,9.36-7.68,18.72-15.35,28.14-23.07,1.44,1.51.68,3.06.68,4.42.06,48.48-.09,96.96.17,145.44.08,14.75-5.29,26.07-16.72,35.46-16.59,13.62-32.52,28.05-48.73,42.13-.61.53-1.24,1.02-2.33,1.9Z"/>
    <path class="cls-2" d="M490.26,171.62c0,13.04-.11,25.02.05,36.99.07,5.62-2.63,10.17-6.37,13.4-21.89,18.9-43.63,38.01-67.46,54.52-.23.16-.61.12-1.55.28,0-8.81.74-17.6-.18-26.2-1.18-11.07,2.38-18.1,11.55-25.13,20.83-15.98,40.31-33.74,60.33-50.77.98-.83,1.96-1.66,3.63-3.08Z"/>
    <path class="cls-5" d="M489.65,561.28c-.38-.3-.66-.64-.1-1,.06-.04.39.32.59.5-.16.17-.32.33-.49.5Z"/>
    <path class="cls-6" d="M138.17,382.76c-1.4,1.35.19,2.04.72,2.81,7.44,10.78,8.7,22.22,2.77,33.91-6.17,12.15-17.01,17.52-30.15,17.84-14.14.34-25.28-5.62-31.45-18.67-5.62-11.89-4.6-23.6,3.63-34.17,9.85-12.65,27.95-16.64,42.79-9.67,1.04.49,2.13.88,3.2,1.31,1.83,2.1,3.92,3.9,6.31,5.34.18,1.22.46,2.3,2.08,1.44l.09-.14Z"/>
    <path class="cls-6" d="M315.82,374.37c7.13-2.47,14.33-4.39,21.94-2.35,16.05,4.29,28.91,18.08,27.07,36.38-1.65,16.41-15.56,28.56-32.83,28.68-25.54.17-41.84-23.14-31.92-45.53,1.58-3.57,4.36-6.22,6.41-9.4,3.71-1.86,6.68-4.62,9.32-7.77Z"/>
    <path class="cls-1" d="M220.68,411.05c-16.58-.08-33.38-11.33-39.09-26.2-2.1-5.46-.93-10.31,3.09-12.85,3.42-2.15,8.58-1.52,11.45,1.41.94.96,1.52,2.09,2.05,3.35,4.2,10.06,12.11,15.57,22.71,15.78,11.01.22,19.24-5.35,24.08-15.44,2.67-5.58,7.39-7.68,12.48-5.41,4.69,2.09,6.32,7.23,4.05,12.71-6.66,16.03-23.04,26.72-40.81,26.64Z"/>
    <path class="cls-1" d="M136,381.46c-2.39-1.44-4.48-3.24-6.31-5.34-6.76-11.47-7.5-23.15-.65-34.79,7.72-13.12,22.57-13.03,30.17.19,5.8,10.09,5.74,20.6.55,30.85-4.43,8.74-12.03,11.83-21.58,10.39,0,0-.09.14-.09.14-.11-1.32-1.41-.92-2.08-1.44Z"/>
    <path class="cls-1" d="M315.82,374.37c-2.64,3.15-5.61,5.91-9.32,7.77-9.65,2.5-17.17-.66-21.82-10.03-5.09-10.27-5.3-20.81.62-30.92,3.35-5.72,8.04-9.7,15.25-9.46,7.33.24,11.95,4.55,15.26,10.45,5.99,10.66,5.55,21.46.02,32.2Z"/>
    <path class="cls-6" d="M256.52,76.11c10.97-19.74,35.91-23.39,50.27-15.32,14.19,7.97,22.96,28.32,17.85,44.03-5.28,16.26-15.98,28.08-28.56,38.67-11.35,9.55-23.38,18.19-35.81,26.28-2.26,1.47-4.46,2.86-7.27.94-19.68-13.41-39.95-26.18-54.91-45.2-12.33-15.67-15.63-32.85-5.62-51.1,3.63-6.63,9.09-11.18,16.35-14.2,13.82-5.75,26.26-3.88,38.11,4.66,3.99,2.87,6.98,6.62,9.59,11.24Z"/>
    <path class="cls-3" d="M364.18,57.4c7.49,8.03,8.65,14.14,4.62,22.61-1.18,2.48-2.54,3.36-5.45,2.67-11.56-2.77-16.68-8.34-17.31-19.82-.12-2.18-.77-2.58-2.8-2.92-11.01-1.85-17.29-8.43-19.13-19.4-.61-3.65.38-5.79,4.18-7.1,10.14-3.49,16.38-1.85,25.21,7.3,5.25-7.92,13.33-10.65,22.57-7.94,2.2.64,2.86,1.61,2.98,3.77.51,9.48-3.77,16.27-12.68,19.79-.73.29-1.43.68-2.19,1.04Z"/>
    <path class="cls-4" d="M136,381.46c.67.52,1.97.11,2.08,1.44-1.62.86-1.9-.22-2.08-1.44Z"/>
  </g>
</svg>